<svg xmlns="http://www.w3.org/2000/svg" viewBox="0 0 1088 1024" role="img"><path d="M0 902.176l288 108 256-96 256 96 288-108v-364.32l-256-96.4v-319.2L544 13.807l-288 108.45v319.2l-256 96.4zm768 27.648l-192-72V606.176l192 72zM512 606.176v251.648l-192 72V678.176zm-224 15.648l-165.03-61.886L288 497.793l165.03 62.144zm544 308V678.176l192-72v251.648zm-32-308l-165.03-61.886L800 497.793l165.03 62.144zm-224-108.4V262.576l192-72v250.848zm-32-307.2l-165.03-61.886L544 82.193l165.03 62.145zm-224-15.647l192 72v250.847l-192-72zm-64 487.599v251.648l-192-72V606.176z"/></svg>